<?xml version="1.0" encoding="utf-8"?>
<!-- Generator: Adobe Illustrator 24.1.2, SVG Export Plug-In . SVG Version: 6.00 Build 0)  -->
<svg version="1.1" xmlns="http://www.w3.org/2000/svg" xmlns:xlink="http://www.w3.org/1999/xlink" x="0px" y="0px"
	 viewBox="0 0 654 654" style="enable-background:new 0 0 654 654;" xml:space="preserve">
<style type="text/css">
	.blue {fill-rule:evenodd;clip-rule:evenodd;fill:#094056;}
</style>
<g id="Line_1">
	<path id="Fill-82" class="blue" d="M131.4,65.2l-66.2,66.2c-2.1,2.8-4.2,5.7-6.2,8.6l81-81C137.1,61,134.2,63.1,131.4,65.2"/>
</g>
<g id="Line_2">
	<path id="Fill-84" class="blue" d="M182.2,33.3L34.3,181.2c-0.8,1.6-1.6,3.2-2.3,4.8L187,31C185.4,31.8,183.8,32.5,182.2,33.3"/>
</g>
<g id="Line_3">
	<path id="Fill-86" class="blue" d="M216.3,19.3L20.3,215.3c-0.5,1.2-0.9,2.5-1.3,3.7L220,18C218.8,18.4,217.5,18.9,216.3,19.3"/>
</g>
<g id="Line_4">
	<path id="Fill-88" class="blue" d="M243.7,10.8L10.8,243.7c-0.3,1.1-0.6,2.2-0.8,3.3L247,10C245.9,10.3,244.8,10.6,243.7,10.8"/>
</g>
<g id="Line_5">
	<path id="Fill-90" class="blue" d="M269.1,4.5L5.5,268.1C5.3,269,5.2,270,5,271L272,4C271,4.2,270,4.3,269.1,4.5"/>
</g>
<g id="Line_6">
	<path id="Fill-92" class="blue" d="M291.3,1.3l-289,290c-0.1,0.9-0.2,1.8-0.3,2.7L294,1C293.1,1.1,292.2,1.2,291.3,1.3"/>
</g>
<g id="Line_7">
	<path id="Fill-94" class="blue" d="M312.5,0.1L0.1,312.5c0,0.8-0.1,1.7-0.1,2.5L315,0C314.2,0,313.3,0.1,312.5,0.1"/>
</g>
<g id="Line_8">
	<path id="Fill-96" class="blue" d="M332.2,0.1L0,332.3c0,0.8,0,1.6,0,2.4L334.6,0.2C333.8,0.2,333,0.2,332.2,0.1"/>
</g>
<g id="Line_9">
	<path id="Fill-66" class="blue" d="M350.7,1L1,350.7c0.1,0.8,0.1,1.5,0.2,2.3L353,1.2C352.2,1.1,351.5,1.1,350.7,1"/>
</g>
<g id="Line_10">
	<path id="Fill-68" class="blue" d="M368.9,2L3,367.9c0.1,0.7,0.2,1.4,0.3,2.1L371,2.3C370.3,2.2,369.6,2.1,368.9,2"/>
</g>
<g id="Line_11">
	<path id="Fill-70" class="blue" d="M386,5L6,385c0.1,0.7,0.3,1.4,0.4,2L388,5.4C387.3,5.3,386.6,5.1,386,5"/>
</g>
<g id="Line_12">
	<path id="Fill-72" class="blue" d="M402,8L9,401c0.2,0.7,0.3,1.3,0.5,2L404,8.5C403.3,8.3,402.7,8.2,402,8"/>
</g>
<g id="Line_13">
	<path id="Fill-74" class="blue" d="M417.1,12L13,416.1c0.2,0.6,0.4,1.2,0.6,1.9L419,12.6C418.4,12.4,417.8,12.2,417.1,12"/>
</g>
<g id="Line_14">
	<path id="Fill-76" class="blue" d="M432.2,17L18,431.2c0.2,0.6,0.4,1.2,0.6,1.8L434,17.6C433.4,17.4,432.8,17.2,432.2,17"/>
</g>
<g id="Line_15">
	<path id="Fill-78" class="blue" d="M446.2,22L23,445.3c0.2,0.6,0.4,1.2,0.7,1.7L448,22.7C447.4,22.4,446.8,22.2,446.2,22"/>
</g>
<g id="Line_16">
	<path id="Fill-80" class="blue" d="M459.3,28L28,459.3c0.2,0.6,0.5,1.1,0.7,1.7L461,28.7C460.4,28.5,459.9,28.2,459.3,28"/>
</g>
<g id="Line_17">
	<path id="Fill-50" class="blue" d="M473.4,34L35,472.4c0.3,0.5,0.5,1.1,0.8,1.6L475,34.8C474.5,34.5,473.9,34.3,473.4,34"/>
</g>
<g id="Line_17_1_">
	<path id="Fill-52" class="blue" d="M485.4,41L41,485.4c0.3,0.5,0.6,1,0.9,1.6L487,41.9C486.5,41.6,486,41.3,485.4,41"/>
</g>
<g id="Line_18">
	<path id="Fill-54" class="blue" d="M497.5,48L48,497.5c0.3,0.5,0.6,1,0.9,1.5L499,48.9C498.5,48.6,498,48.3,497.5,48"/>
</g>
<g id="Line_19">
	<path id="Fill-56" class="blue" d="M509.6,55L56,508.6c0.3,0.5,0.7,1,1,1.4L511,56C510.5,55.7,510,55.3,509.6,55"/>
</g>
<g id="Line_20">
	<path id="Fill-58" class="blue" d="M521.6,63L64,520.6c0.3,0.5,0.7,0.9,1,1.4L523,64C522.5,63.7,522.1,63.3,521.6,63"/>
</g>
<g id="Line_21">
	<path id="Fill-60" class="blue" d="M531.7,72L72,531.7c0.4,0.4,0.7,0.9,1.1,1.3L533,73.1C532.6,72.7,532.1,72.4,531.7,72"/>
</g>
<g id="Line_22">
	<path id="Fill-62" class="blue" d="M542.7,80L81,541.7c0.4,0.4,0.8,0.9,1.1,1.3L544,81.1C543.6,80.8,543.1,80.4,542.7,80"/>
</g>
<g id="Line_23">
	<path id="Fill-64" class="blue" d="M552.8,90L90,552.8c0.4,0.4,0.8,0.8,1.2,1.2L554,91.2C553.6,90.8,553.2,90.4,552.8,90"/>
</g>
<g id="Line_24">
	<path id="Fill-34" class="blue" d="M562.8,99L100,561.8c0.4,0.4,0.8,0.8,1.2,1.2L564,100.2C563.6,99.8,563.2,99.4,562.8,99"/>
</g>
<g id="Line_25">
	<path id="Fill-36" class="blue" d="M571.9,109L110,570.9c0.4,0.4,0.9,0.8,1.3,1.1L573,110.3C572.6,109.9,572.2,109.4,571.9,109"/>
</g>
<g id="Line_26">
	<path id="Fill-38" class="blue" d="M580.9,120L121,579.9c0.4,0.4,0.9,0.7,1.3,1.1L582,121.3C581.6,120.9,581.3,120.4,580.9,120"/>
</g>
<g id="Line_27">
	<path id="Fill-40" class="blue" d="M589,131L131,589c0.5,0.3,0.9,0.7,1.4,1L590,132.4C589.7,131.9,589.3,131.5,589,131"/>
</g>
<g id="Line_28">
	<path id="Fill-42" class="blue" d="M598,142L143,597c0.5,0.3,1,0.7,1.4,1L599,143.4C598.7,143,598.3,142.5,598,142"/>
</g>
<g id="Line_29">
	<path id="Fill-44" class="blue" d="M605.1,154L155,605.1c0.5,0.3,1,0.6,1.5,0.9L606,155.5C605.7,155,605.4,154.5,605.1,154"/>
</g>
<g id="Line_30">
	<path id="Fill-46" class="blue" d="M612.1,166L167,612.1c0.5,0.3,1,0.6,1.6,0.9L613,167.6C612.7,167,612.4,166.5,612.1,166"/>
</g>
<g id="Line_31">
	<path id="Fill-48" class="blue" d="M619.2,178L179,618.2c0.5,0.3,1.1,0.5,1.6,0.8L620,179.6C619.7,179.1,619.5,178.5,619.2,178"/>
</g>
<g id="Line_32">
	<path id="Fill-18" class="blue" d="M625.2,192L192,625.3c0.6,0.3,1.1,0.5,1.7,0.7L626,193.7C625.7,193.1,625.5,192.6,625.2,192"/>
</g>
<g id="Line_33">
	<path id="Fill-20" class="blue" d="M631.3,205L206,630.3c0.6,0.2,1.1,0.5,1.7,0.7L632,206.7C631.8,206.1,631.5,205.6,631.3,205"/>
</g>
<g id="Line_34">
	<path id="Fill-22" class="blue" d="M636.4,219L220,635.4c0.6,0.2,1.2,0.4,1.8,0.6L637,220.8C636.8,220.2,636.6,219.6,636.4,219"/>
</g>
<g id="Line_35">
	<path id="Fill-24" class="blue" d="M641.4,234L235,640.4c0.6,0.2,1.2,0.4,1.9,0.6L642,235.9C641.8,235.2,641.6,234.6,641.4,234"/>
</g>
<g id="Line_36">
	<path id="Fill-26" class="blue" d="M645.5,249L250,644.5c0.6,0.2,1.3,0.3,2,0.5l394-394C645.8,250.3,645.7,249.7,645.5,249"/>
</g>
<g id="Line_37">
	<path id="Fill-28" class="blue" d="M648.6,265L266,647.6c0.7,0.1,1.4,0.3,2,0.4l381-381C648.9,266.4,648.7,265.7,648.6,265"/>
</g>
<g id="Line_38">
	<path id="Fill-30" class="blue" d="M651.7,282L283,650.7c0.7,0.1,1.4,0.2,2.1,0.3L652,284.1C651.9,283.4,651.8,282.7,651.7,282"/>
</g>
<g id="Line_39">
	<path id="Fill-32" class="blue" d="M652.8,300L300,652.8c0.7,0.1,1.5,0.1,2.2,0.2L653,302.2C652.9,301.5,652.9,300.7,652.8,300"/>
</g>
<g id="Line_40">
	<path id="Fill-1" class="blue" d="M653.8,317.6L318.5,654c0.8,0,1.6,0,2.4,0l333-334C653.8,319.2,653.8,318.4,653.8,317.6"/>
</g>
<g id="Line_41">
	<path id="Fill-4" class="blue" d="M340.5,653.9l313.4-313.4c0-0.8,0.1-1.7,0.1-2.5L338,654C338.8,654,339.7,653.9,340.5,653.9"/>
</g>
<g id="Line_42">
	<path id="Fill-6" class="blue" d="M361.7,651.7l291.1-291.1c0.1-0.9,0.2-1.8,0.3-2.7L359,652C359.9,651.9,360.8,651.8,361.7,651.7"
		/>
</g>
<g id="Line_43">
	<path id="Fill-8" class="blue" d="M383.9,648.5l265.6-265.6c0.2-1,0.3-1.9,0.5-2.9L381,649C382,648.8,382.9,648.7,383.9,648.5"/>
</g>
<g id="Line_44">
	<path id="Fill-10" class="blue" d="M408.2,644.2l236-236c0.3-1.1,0.5-2.1,0.8-3.2L405,645C406.1,644.7,407.1,644.5,408.2,644.2"/>
</g>
<g id="Line_45">
	<path id="Fill-12" class="blue" d="M436.7,635.7l198.9-199.9c0.4-1.3,0.9-2.5,1.3-3.8L433,637C434.3,636.6,435.5,636.1,436.7,635.7"
		/>
</g>
<g id="Line_46">
	<path id="Fill-14" class="blue" d="M469.6,621.8l152.3-152.3c0.7-1.5,1.4-3,2.2-4.6L465,624C466.5,623.3,468.1,622.6,469.6,621.8"/>
</g>
<g id="Line_47">
	<path id="Fill-16" class="blue" d="M516.9,593.5l76.6-76.6c1.9-2.6,3.7-5.3,5.5-7.9l-90,90C511.7,597.2,514.3,595.4,516.9,593.5"/>
</g>
</svg>
