<svg id="Layer_1" data-name="Layer 1" xmlns="http://www.w3.org/2000/svg" viewBox="0 0 410.81 373.98"><defs><style>.cls-1,.cls-3{fill:#094056;}.cls-1{fill-rule:evenodd;}.cls-2{fill:#A2B526;}</style></defs><title>AI-Logo</title><path class="cls-1" d="M132.88,271.21H105.33L221.43,25.47h6.64L342.21,271H315.65l-91-193.34Z" transform="translate(-18.36 -25.47)"/><path class="cls-2" d="M364.3,121.3c14.93,0,18.61,5.11,9.4,15.75-9.81,11.45-17,19.63-28.63,34.15-9.82,12.89-17.79,23.52-21.06,30.07-3.28,5.52-4.71,11.25-1.84,13.5,2.66,2.45,8.79.2,13.9-2.25a162.37,162.37,0,0,0,27-18.61c12.88-10.44,22.5-18.41,29.45-25.16,2.86-1.84,6.75-5.52,8.59-3.68s-3.07,6.13-4.91,8A473.32,473.32,0,0,1,359.39,205c-16.16,12.27-36,26-58.9,26-17.18,0-22.09-7.56-22.09-16.77.2-8,4.5-16,9-23.31C298.85,172.63,322,146.66,335.66,134c1.84-1.84,6.75-6.95-5.52-5.11-25.15,3.06-49.08,7.36-62,9.81C154.66,160.77,47.9,233.17,38.08,306.8c-7.36,55.84,31.3,87.74,79.77,87.74,19,0,22.09-3.07,22.09-.61,0,1.84-7.37,5.52-23.32,5.52-55.83,0-104.72-37.63-97.56-96.94,9.21-77.93,132.33-146.44,249.11-169.35,47.66-9.41,79.36-11.86,95.51-11.86Zm54.2-82.83c10.43,0,14.52,7.56,6.34,18-8.59,11-26,19-32.93,19-3.48-4.5-4.09-15.34-.62-23.73,4.5-10.84,13.71-13.29,26.59-13.29Z" transform="translate(-18.36 -25.47)"/><path class="cls-3" d="M98.35,281.51l16.52,35.42H111l-5.57-11.66H90.21l-5.52,11.66h-4l16.74-35.42ZM97.9,289l-6.07,12.82h12.11Z" transform="translate(-18.36 -25.47)"/><path class="cls-3" d="M133,293.59l-2.16,2.24q-2.72-2.62-5.29-2.62a4,4,0,0,0-2.81,1.08,3.35,3.35,0,0,0-1.17,2.53,3.75,3.75,0,0,0,1,2.43,13.55,13.55,0,0,0,4,2.77,15.19,15.19,0,0,1,5.12,3.76A6.81,6.81,0,0,1,133,309.9a7.38,7.38,0,0,1-2.27,5.46,7.71,7.71,0,0,1-5.67,2.24,10,10,0,0,1-4.33-1,9.43,9.43,0,0,1-3.41-2.73l2.12-2.4q2.58,2.91,5.48,2.91a4.92,4.92,0,0,0,3.45-1.3,4,4,0,0,0,1.42-3.06,3.93,3.93,0,0,0-.94-2.58,15.35,15.35,0,0,0-4.24-2.79,13.53,13.53,0,0,1-4.83-3.61A6.84,6.84,0,0,1,118.5,297a6.62,6.62,0,0,1,2-5,7.08,7.08,0,0,1,5.15-2Q129.31,290.05,133,293.59Z" transform="translate(-18.36 -25.47)"/><path class="cls-3" d="M152.12,293.59,150,295.83q-2.7-2.62-5.29-2.62a4,4,0,0,0-2.81,1.08,3.35,3.35,0,0,0-1.17,2.53,3.75,3.75,0,0,0,1,2.43A13.63,13.63,0,0,0,145.7,302a15.13,15.13,0,0,1,5.11,3.76,6.81,6.81,0,0,1,1.33,4.12,7.34,7.34,0,0,1-2.27,5.46,7.7,7.7,0,0,1-5.66,2.24,10,10,0,0,1-4.33-1,9.34,9.34,0,0,1-3.41-2.73l2.11-2.4c1.73,1.94,3.55,2.91,5.48,2.91a4.89,4.89,0,0,0,3.45-1.3,4,4,0,0,0,1.43-3.06,3.93,3.93,0,0,0-.94-2.58,15.62,15.62,0,0,0-4.25-2.79,13.72,13.72,0,0,1-4.83-3.61,6.83,6.83,0,0,1-1.27-4.07,6.61,6.61,0,0,1,2-5,7.1,7.1,0,0,1,5.15-2C147.25,290.05,149.67,291.23,152.12,293.59Z" transform="translate(-18.36 -25.47)"/><path class="cls-3" d="M170.49,290.05a13,13,0,0,1,10,4.39,14.06,14.06,0,0,1-.21,19.06,13.86,13.86,0,0,1-19.68,0,14,14,0,0,1-.21-19A13,13,0,0,1,170.49,290.05Zm0,3.3a9.76,9.76,0,0,0-7.23,3.11,10.4,10.4,0,0,0-3,7.51,10.64,10.64,0,0,0,1.38,5.3,9.75,9.75,0,0,0,3.72,3.79,10.57,10.57,0,0,0,10.3,0,9.75,9.75,0,0,0,3.72-3.79,10.64,10.64,0,0,0,1.38-5.3,10.38,10.38,0,0,0-3-7.51A9.73,9.73,0,0,0,170.48,293.35Z" transform="translate(-18.36 -25.47)"/><path class="cls-3" d="M215.81,296.17l-2.67,1.66a11.21,11.21,0,0,0-9.45-4.6,10.94,10.94,0,0,0-7.95,3.08,10.05,10.05,0,0,0-3.17,7.48,10.62,10.62,0,0,0,1.46,5.39,10.23,10.23,0,0,0,4,3.92,12.07,12.07,0,0,0,15.12-3.2l2.67,1.75a12.57,12.57,0,0,1-5,4.39,16.13,16.13,0,0,1-7.22,1.56,14.21,14.21,0,0,1-10.3-4,12.83,12.83,0,0,1-4.1-9.6,13.68,13.68,0,0,1,1.92-7.07,13.44,13.44,0,0,1,5.26-5.1,15.35,15.35,0,0,1,7.49-1.83,16,16,0,0,1,5,.8,14.13,14.13,0,0,1,4.11,2.07A11.29,11.29,0,0,1,215.81,296.17Z" transform="translate(-18.36 -25.47)"/><path class="cls-3" d="M223.46,279.94a2.78,2.78,0,1,1-2.76,2.79,2.7,2.7,0,0,1,.81-2A2.66,2.66,0,0,1,223.46,279.94Zm-1.68,10.79h3.38v26.2h-3.38Z" transform="translate(-18.36 -25.47)"/><path class="cls-3" d="M258.27,290.73v26.2h-3.33v-4.5a14.37,14.37,0,0,1-4.75,3.87,13.3,13.3,0,0,1-15.27-2.73,13.51,13.51,0,0,1-3.94-9.81,13.26,13.26,0,0,1,4-9.68,12.94,12.94,0,0,1,9.56-4,12.34,12.34,0,0,1,5.84,1.38,13.15,13.15,0,0,1,4.58,4.11v-4.81Zm-13.48,2.58a10.17,10.17,0,0,0-9,5.26,10.63,10.63,0,0,0-1.41,5.3,10.74,10.74,0,0,0,1.42,5.29,10.43,10.43,0,0,0,3.81,3.93,10,10,0,0,0,5.14,1.41,10.53,10.53,0,0,0,5.24-1.4,9.75,9.75,0,0,0,3.81-3.78,10.74,10.74,0,0,0,1.34-5.36,10.45,10.45,0,0,0-3-7.6A9.92,9.92,0,0,0,244.79,293.31Z" transform="translate(-18.36 -25.47)"/><path class="cls-3" d="M268.79,281h3.37v9.73h5.35v2.91h-5.35v23.29h-3.37V293.64h-4.6v-2.91h4.6Z" transform="translate(-18.36 -25.47)"/><path class="cls-3" d="M283.73,279.94a2.67,2.67,0,0,1,2,.82,2.7,2.7,0,0,1,.81,2,2.78,2.78,0,0,1-2.78,2.77,2.62,2.62,0,0,1-1.94-.82,2.67,2.67,0,0,1-.82-1.95,2.71,2.71,0,0,1,.82-2A2.62,2.62,0,0,1,283.73,279.94Zm-1.67,10.79h3.37v26.2h-3.37Z" transform="translate(-18.36 -25.47)"/><path class="cls-3" d="M304.84,290.05a13,13,0,0,1,10,4.39,14.07,14.07,0,0,1-.2,19.06,13.87,13.87,0,0,1-19.69,0,14,14,0,0,1-.2-19A13,13,0,0,1,304.84,290.05Zm0,3.3a9.73,9.73,0,0,0-7.23,3.11,10.4,10.4,0,0,0-3,7.51,10.64,10.64,0,0,0,1.38,5.3,9.75,9.75,0,0,0,3.72,3.79,10.55,10.55,0,0,0,10.29,0,9.71,9.71,0,0,0,3.73-3.79,10.74,10.74,0,0,0,1.37-5.3,10.37,10.37,0,0,0-3-7.51A9.75,9.75,0,0,0,304.83,293.35Z" transform="translate(-18.36 -25.47)"/><path class="cls-3" d="M324.73,290.73h3.37v4.69a14.15,14.15,0,0,1,4.48-4,11,11,0,0,1,5.35-1.34,9.27,9.27,0,0,1,5.21,1.5,8.81,8.81,0,0,1,3.36,4c.72,1.68,1.08,4.31,1.08,7.87v13.49h-3.37v-12.5a30.86,30.86,0,0,0-.37-6,6.69,6.69,0,0,0-2.25-3.92,6.82,6.82,0,0,0-4.34-1.31,8.37,8.37,0,0,0-5.48,2,9.55,9.55,0,0,0-3.19,5,35,35,0,0,0-.48,7.13v9.61h-3.37Z" transform="translate(-18.36 -25.47)"/><path class="cls-3" d="M368,293.59l-2.17,2.24q-2.7-2.62-5.29-2.62a4,4,0,0,0-2.81,1.08,3.35,3.35,0,0,0-1.17,2.53,3.75,3.75,0,0,0,1,2.43,13.63,13.63,0,0,0,4.06,2.77,15.19,15.19,0,0,1,5.12,3.76A6.86,6.86,0,0,1,368,309.9a7.37,7.37,0,0,1-2.26,5.46,7.74,7.74,0,0,1-5.67,2.24,10,10,0,0,1-4.33-1,9.34,9.34,0,0,1-3.41-2.73l2.12-2.4q2.58,2.91,5.47,2.91a4.93,4.93,0,0,0,3.46-1.3A4,4,0,0,0,364.8,310a3.93,3.93,0,0,0-.94-2.58,15.45,15.45,0,0,0-4.25-2.79,13.57,13.57,0,0,1-4.82-3.61,6.77,6.77,0,0,1-1.28-4.07,6.65,6.65,0,0,1,2-5,7.1,7.1,0,0,1,5.15-2C363.11,290.05,365.53,291.23,368,293.59Z" transform="translate(-18.36 -25.47)"/><path class="cls-3" d="M78.13,334.35h3.54v35.42H78.13Z" transform="translate(-18.36 -25.47)"/><path class="cls-3" d="M89.23,343.57H92.6v4.69a14.15,14.15,0,0,1,4.48-4,11,11,0,0,1,5.35-1.34,9.25,9.25,0,0,1,5.21,1.5,8.81,8.81,0,0,1,3.36,4c.72,1.68,1.08,4.31,1.08,7.87v13.49h-3.37v-12.5a30.86,30.86,0,0,0-.37-6,6.64,6.64,0,0,0-2.25-3.92,6.82,6.82,0,0,0-4.34-1.31,8.32,8.32,0,0,0-5.48,2,9.55,9.55,0,0,0-3.19,5,35,35,0,0,0-.48,7.13v9.61H89.23Z" transform="translate(-18.36 -25.47)"/><path class="cls-3" d="M122.25,333.84h3.37v9.73H131v2.91h-5.34v23.29h-3.37V346.48h-4.6v-2.91h4.6Z" transform="translate(-18.36 -25.47)"/><path class="cls-3" d="M158.08,361.08l2.84,1.49a15.43,15.43,0,0,1-3.23,4.43,12.83,12.83,0,0,1-4.12,2.56,14.32,14.32,0,0,1-5.18.88q-6.42,0-10-4.2a14.36,14.36,0,0,1-.56-18.39,12.54,12.54,0,0,1,10.39-5,12.91,12.91,0,0,1,10.7,5.09,14.19,14.19,0,0,1,2.9,8.95H138.21a10.66,10.66,0,0,0,2.92,7.49,9.32,9.32,0,0,0,7,2.92,11.05,11.05,0,0,0,3.89-.7,10.22,10.22,0,0,0,3.22-1.85A15.65,15.65,0,0,0,158.08,361.08Zm0-7.06a11.2,11.2,0,0,0-2-4.31,9.22,9.22,0,0,0-3.41-2.6,10.41,10.41,0,0,0-4.46-1,9.63,9.63,0,0,0-6.63,2.48,11.23,11.23,0,0,0-3.06,5.42Z" transform="translate(-18.36 -25.47)"/><path class="cls-3" d="M166.79,343.57h3.45v3.83a12.19,12.19,0,0,1,3.25-3.39,6.47,6.47,0,0,1,3.56-1.12,6.12,6.12,0,0,1,3,.9l-1.76,2.84a4.58,4.58,0,0,0-1.78-.46,4.88,4.88,0,0,0-3.25,1.38,8.87,8.87,0,0,0-2.39,4.3q-.62,2.23-.62,9.06v8.86h-3.45Z" transform="translate(-18.36 -25.47)"/><path class="cls-3" d="M182.9,343.57h3.38v4.69a14,14,0,0,1,4.48-4,11,11,0,0,1,5.34-1.34,9.23,9.23,0,0,1,5.21,1.5,8.81,8.81,0,0,1,3.36,4c.73,1.68,1.09,4.31,1.09,7.87v13.49h-3.37v-12.5a30.6,30.6,0,0,0-.38-6,6.64,6.64,0,0,0-2.25-3.92,6.79,6.79,0,0,0-4.33-1.31,8.3,8.3,0,0,0-5.48,2,9.49,9.49,0,0,0-3.19,5,35,35,0,0,0-.48,7.13v9.61H182.9Z" transform="translate(-18.36 -25.47)"/><path class="cls-3" d="M239.09,343.57v26.2h-3.33v-4.5a14.47,14.47,0,0,1-4.75,3.87,13.3,13.3,0,0,1-15.27-2.73,13.51,13.51,0,0,1-3.94-9.81,13.26,13.26,0,0,1,4-9.68,12.94,12.94,0,0,1,9.56-4,12.34,12.34,0,0,1,5.84,1.38,13.25,13.25,0,0,1,4.58,4.11v-4.81Zm-13.48,2.58a10.17,10.17,0,0,0-9,5.26,10.61,10.61,0,0,0,0,10.59,10.43,10.43,0,0,0,3.81,3.93,10,10,0,0,0,5.14,1.41,10.53,10.53,0,0,0,5.24-1.4,9.79,9.79,0,0,0,3.81-3.77A10.81,10.81,0,0,0,236,356.8a10.42,10.42,0,0,0-3-7.6A9.88,9.88,0,0,0,225.61,346.15Z" transform="translate(-18.36 -25.47)"/><path class="cls-3" d="M249.61,333.84H253v9.73h5.35v2.91H253v23.29h-3.37V346.48H245v-2.91h4.6Z" transform="translate(-18.36 -25.47)"/><path class="cls-3" d="M264.55,332.78a2.67,2.67,0,0,1,2,.82,2.7,2.7,0,0,1,.81,2,2.78,2.78,0,0,1-2.78,2.77,2.62,2.62,0,0,1-1.94-.82,2.67,2.67,0,0,1-.82-1.95,2.71,2.71,0,0,1,.82-2A2.62,2.62,0,0,1,264.55,332.78Zm-1.67,10.79h3.37v26.2h-3.37Z" transform="translate(-18.36 -25.47)"/><path class="cls-3" d="M285.66,342.89a13,13,0,0,1,10,4.39,14.07,14.07,0,0,1-.2,19.06,13.87,13.87,0,0,1-19.69,0,14,14,0,0,1-.2-19A13,13,0,0,1,285.66,342.89Zm0,3.3a9.74,9.74,0,0,0-7.23,3.11,10.4,10.4,0,0,0-3,7.51,10.64,10.64,0,0,0,1.38,5.3,9.75,9.75,0,0,0,3.72,3.79,10.55,10.55,0,0,0,10.29,0,9.62,9.62,0,0,0,3.72-3.79,10.64,10.64,0,0,0,1.38-5.3,10.37,10.37,0,0,0-3-7.51A9.75,9.75,0,0,0,285.65,346.19Z" transform="translate(-18.36 -25.47)"/><path class="cls-3" d="M305.55,343.57h3.37v4.69a14.15,14.15,0,0,1,4.48-4,11,11,0,0,1,5.35-1.34,9.27,9.27,0,0,1,5.21,1.5,8.87,8.87,0,0,1,3.36,4c.72,1.68,1.08,4.31,1.08,7.87v13.49H325v-12.5a31.7,31.7,0,0,0-.37-6,6.75,6.75,0,0,0-2.25-3.92,6.84,6.84,0,0,0-4.34-1.31,8.32,8.32,0,0,0-5.48,2,9.49,9.49,0,0,0-3.19,5,35,35,0,0,0-.48,7.13v9.61h-3.37Z" transform="translate(-18.36 -25.47)"/><path class="cls-3" d="M361.73,343.57v26.2h-3.32v-4.5a14.5,14.5,0,0,1-4.76,3.87,13.3,13.3,0,0,1-15.27-2.73,13.54,13.54,0,0,1-3.93-9.81,13.25,13.25,0,0,1,4-9.68,13,13,0,0,1,9.56-4,12.31,12.31,0,0,1,5.84,1.38,13.37,13.37,0,0,1,4.59,4.11v-4.81Zm-13.47,2.58a10.17,10.17,0,0,0-9,5.26,10.61,10.61,0,0,0-1.4,5.3,10.73,10.73,0,0,0,1.41,5.29,10.38,10.38,0,0,0,3.82,3.93,9.91,9.91,0,0,0,5.13,1.41,10.56,10.56,0,0,0,5.25-1.4,9.79,9.79,0,0,0,3.81-3.77,10.8,10.8,0,0,0,1.33-5.37,10.45,10.45,0,0,0-3-7.6A9.92,9.92,0,0,0,348.26,346.15Z" transform="translate(-18.36 -25.47)"/><path class="cls-3" d="M368.81,333.45h3.37v36.32h-3.37Z" transform="translate(-18.36 -25.47)"/></svg>